<svg width="188" height="38" viewBox="0 0 188 38" fill="none" xmlns="http://www.w3.org/2000/svg">
<g filter="url(#filter0_d_341_656)">
<g clip-path="url(#clip0_341_656)">
<path d="M18.7573 4.95854L33.1886 0.78125L28.9778 15.0001L33.1886 29.1788L18.7573 25.0416L4.28516 29.1788L8.53687 15.0001L4.28516 0.78125L18.7573 4.95854Z" fill="white"/>
</g>
<path d="M44.1094 25.4726V2.91699H53.2268C54.6261 2.91699 55.8723 3.19625 56.9655 3.75477C58.0806 4.29181 58.9442 5.06514 59.5564 6.07477C60.1905 7.06292 60.5075 8.25514 60.5075 9.65144V10.0703C60.5075 11.4666 60.1796 12.6696 59.5236 13.6792C58.8896 14.6888 58.0259 15.4622 56.9327 15.9992C55.8395 16.5363 54.6042 16.8048 53.2268 16.8048H47.6514V25.4726H44.1094ZM47.6514 13.647H52.866C54.1123 13.647 55.1071 13.3248 55.8505 12.6803C56.5938 12.0359 56.9655 11.1551 56.9655 10.0381V9.71588C56.9655 8.57736 56.5938 7.68588 55.8505 7.04144C55.1071 6.39699 54.1123 6.07477 52.866 6.07477H47.6514V13.647Z" fill="white"/>
<path d="M71.0964 25.9237C69.4784 25.9237 68.0354 25.6014 66.7673 24.957C65.521 24.2911 64.5371 23.3459 63.8156 22.1214C63.0941 20.897 62.7333 19.447 62.7333 17.7714V17.2881C62.7333 15.6125 63.0941 14.1733 63.8156 12.9703C64.5371 11.7459 65.521 10.8007 66.7673 10.1348C68.0354 9.46884 69.4784 9.13588 71.0964 9.13588C72.7143 9.13588 74.1574 9.46884 75.4255 10.1348C76.6936 10.8007 77.6885 11.7459 78.41 12.9703C79.1315 14.1733 79.4923 15.6125 79.4923 17.2881V17.7714C79.4923 19.447 79.1315 20.897 78.41 22.1214C77.6885 23.3459 76.6936 24.2911 75.4255 24.957C74.1574 25.6014 72.7143 25.9237 71.0964 25.9237ZM71.0964 22.9592C72.5832 22.9592 73.7857 22.4974 74.704 21.5737C75.6442 20.6285 76.1142 19.3288 76.1142 17.6748V17.3848C76.1142 15.7307 75.6551 14.4418 74.7368 13.5181C73.8185 12.5729 72.605 12.1003 71.0964 12.1003C69.6315 12.1003 68.429 12.5729 67.4888 13.5181C66.5705 14.4418 66.1114 15.7307 66.1114 17.3848V17.6748C66.1114 19.3288 66.5705 20.6285 67.4888 21.5737C68.429 22.4974 69.6315 22.9592 71.0964 22.9592Z" fill="white"/>
<path d="M90.3227 25.9237C88.2675 25.9237 86.5621 25.4726 85.2065 24.5703C83.8509 23.6681 83.0201 22.304 82.714 20.4781L85.8624 19.737C86.0373 20.6177 86.3325 21.3159 86.7479 21.8314C87.1633 22.347 87.6772 22.7122 88.2894 22.927C88.9234 23.1418 89.6012 23.2492 90.3227 23.2492C91.3941 23.2492 92.214 23.0451 92.7825 22.637C93.3728 22.2288 93.668 21.7026 93.668 21.0581C93.668 20.4137 93.3947 19.9411 92.848 19.6403C92.3014 19.3396 91.4925 19.0926 90.4211 18.8992L89.306 18.7059C88.2128 18.5126 87.218 18.2333 86.3216 17.8681C85.4251 17.5029 84.7146 16.9981 84.1898 16.3537C83.6651 15.7092 83.4027 14.8822 83.4027 13.8725C83.4027 12.3688 83.9712 11.2088 85.1081 10.3925C86.245 9.55477 87.7537 9.13588 89.634 9.13588C91.4487 9.13588 92.9355 9.54403 94.0943 10.3603C95.275 11.1551 96.0402 12.24 96.3901 13.6148L93.2416 14.4848C93.0448 13.5181 92.6294 12.8414 91.9953 12.4548C91.3613 12.0466 90.5742 11.8425 89.634 11.8425C88.7157 11.8425 87.9942 12.0144 87.4694 12.3581C86.9447 12.6803 86.6823 13.1422 86.6823 13.7437C86.6823 14.3881 86.9338 14.8607 87.4367 15.1614C87.9614 15.4622 88.661 15.6877 89.5356 15.8381L90.6835 16.0314C91.8423 16.2248 92.9027 16.4933 93.8647 16.837C94.8268 17.1807 95.5811 17.6748 96.1277 18.3192C96.6961 18.9637 96.9804 19.8229 96.9804 20.897C96.9804 22.4866 96.3791 23.7218 95.1766 24.6025C93.9741 25.4833 92.3561 25.9237 90.3227 25.9237Z" fill="white"/>
<path d="M100.929 25.4726V9.58699H104.307V25.4726H100.929ZM102.634 7.42811C101.978 7.42811 101.421 7.22403 100.962 6.81588C100.524 6.38625 100.306 5.83847 100.306 5.17255C100.306 4.50662 100.524 3.96959 100.962 3.56144C101.421 3.13181 101.978 2.91699 102.634 2.91699C103.312 2.91699 103.869 3.13181 104.307 3.56144C104.744 3.96959 104.963 4.50662 104.963 5.17255C104.963 5.83847 104.744 6.38625 104.307 6.81588C103.869 7.22403 103.312 7.42811 102.634 7.42811Z" fill="white"/>
<path d="M115.387 25.4726C114.403 25.4726 113.616 25.1825 113.026 24.6025C112.458 24.0225 112.173 23.2492 112.173 22.2826V12.3903H107.713V9.58699H112.173V4.33477H115.551V9.58699H120.372V12.3903H115.551V21.7025C115.551 22.347 115.857 22.6692 116.47 22.6692H119.848V25.4726H115.387Z" fill="white"/>
<path d="M124.341 25.4726V9.58699H127.719V25.4726H124.341ZM126.046 7.42811C125.39 7.42811 124.833 7.22403 124.374 6.81588C123.936 6.38625 123.718 5.83847 123.718 5.17255C123.718 4.50662 123.936 3.96959 124.374 3.56144C124.833 3.13181 125.39 2.91699 126.046 2.91699C126.724 2.91699 127.282 3.13181 127.719 3.56144C128.156 3.96959 128.375 4.50662 128.375 5.17255C128.375 5.83847 128.156 6.38625 127.719 6.81588C127.282 7.22403 126.724 7.42811 126.046 7.42811Z" fill="white"/>
<path d="M136.471 25.4726L131.027 9.58699H134.602L138.898 23.0237H139.423L143.719 9.58699H147.294L141.85 25.4726H136.471Z" fill="white"/>
<path d="M156.77 25.7626C155.546 25.7626 154.453 25.494 153.491 24.957C152.528 24.42 151.774 23.6574 151.228 22.6692C150.681 21.6811 150.408 20.4996 150.408 19.1248V9.58699H153.786V18.8992C153.786 20.274 154.136 21.2944 154.835 21.9603C155.535 22.6048 156.508 22.927 157.754 22.927C159.131 22.927 160.236 22.4759 161.066 21.5737C161.919 20.65 162.346 19.3288 162.346 17.6103V9.58699H165.724V25.4726H162.411V23.0881H161.886C161.58 23.7326 161.034 24.3448 160.247 24.9248C159.459 25.4833 158.301 25.7626 156.77 25.7626Z" fill="white"/>
<path d="M177.342 25.9237C175.287 25.9237 173.581 25.4726 172.226 24.5703C170.87 23.6681 170.039 22.304 169.733 20.4781L172.882 19.737C173.056 20.6177 173.352 21.3159 173.767 21.8314C174.183 22.347 174.696 22.7122 175.309 22.927C175.943 23.1418 176.62 23.2492 177.342 23.2492C178.413 23.2492 179.233 23.0451 179.802 22.637C180.392 22.2288 180.687 21.7026 180.687 21.0581C180.687 20.4137 180.414 19.9411 179.867 19.6403C179.321 19.3396 178.512 19.0926 177.44 18.8992L176.325 18.7059C175.232 18.5126 174.237 18.2333 173.341 17.8681C172.444 17.5029 171.734 16.9981 171.209 16.3537C170.684 15.7092 170.422 14.8822 170.422 13.8725C170.422 12.3688 170.99 11.2088 172.127 10.3925C173.264 9.55477 174.773 9.13588 176.653 9.13588C178.468 9.13588 179.955 9.54403 181.113 10.3603C182.294 11.1551 183.059 12.24 183.409 13.6148L180.261 14.4848C180.064 13.5181 179.649 12.8414 179.015 12.4548C178.38 12.0466 177.593 11.8425 176.653 11.8425C175.735 11.8425 175.013 12.0144 174.489 12.3581C173.964 12.6803 173.702 13.1422 173.702 13.7437C173.702 14.3881 173.953 14.8607 174.456 15.1614C174.981 15.4622 175.68 15.6877 176.555 15.8381L177.703 16.0314C178.861 16.2248 179.922 16.4933 180.884 16.837C181.846 17.1807 182.6 17.6748 183.147 18.3192C183.715 18.9637 184 19.8229 184 20.897C184 22.4866 183.398 23.7218 182.196 24.6025C180.993 25.4833 179.375 25.9237 177.342 25.9237Z" fill="white"/>
</g>
<defs>
<filter id="filter0_d_341_656" x="0" y="0.5" width="188" height="37" filterUnits="userSpaceOnUse" color-interpolation-filters="sRGB">
<feFlood flood-opacity="0" result="BackgroundImageFix"/>
<feColorMatrix in="SourceAlpha" type="matrix" values="0 0 0 0 0 0 0 0 0 0 0 0 0 0 0 0 0 0 127 0" result="hardAlpha"/>
<feOffset dy="4"/>
<feGaussianBlur stdDeviation="2"/>
<feComposite in2="hardAlpha" operator="out"/>
<feColorMatrix type="matrix" values="0 0 0 0 0 0 0 0 0 0 0 0 0 0 0 0 0 0 0.25 0"/>
<feBlend mode="normal" in2="BackgroundImageFix" result="effect1_dropShadow_341_656"/>
<feBlend mode="normal" in="SourceGraphic" in2="effect1_dropShadow_341_656" result="shape"/>
</filter>
<clipPath id="clip0_341_656">
<rect width="29.5167" height="29" fill="white" transform="translate(4 0.5)"/>
</clipPath>
</defs>
</svg>
